<svg width="409" height="257" viewBox="0 0 409 257" fill="none" xmlns="http://www.w3.org/2000/svg">
<path d="M93.37 249.51C99.42 252.25 108.32 254.91 114.5 255.81C116.15 256.05 158.23 256.18 208 256.11L298.5 255.97L305.5 253.64C332.95 244.49 349.65 225.02 358.18 192.23C360.02 185.15 360.33 181.05 360.41 162.81L360.5 141.61L363.93 138.08C368.99 132.86 379.78 128.72 391.5 127.5C402.5 126.36 404.35 125.61 407.05 121.19C409.45 117.25 409.53 113.21 407.29 109.42C402.04 100.53 385.29 101.64 361.4 112.47C353.74 115.95 353.04 115.64 353.02 108.8C353 105.81 354.15 102.41 357 97C359.2 92.82 361 88.97 361 88.43C361 87.37 60.92 87.13 52.03 88.18C49.26 88.51 47 89.18 47 89.68C47 90.17 48.58 92.92 50.5 95.78C53.64 100.44 54 101.66 54 107.74C54 115.4 53.46 115.79 47.21 112.61C45.17 111.57 38.74 109.1 32.91 107.11C12.42 100.12 0 103.18 0 115.21C0 118.47 0.660007 120.21 2.82001 122.63C5.49001 125.61 6.25 125.86 16.81 127.06C30.03 128.58 36.57 131.2 43.4 137.75L48.08 142.23L47.42 156.62C45.31 202.39 61.47 235.05 93.37 249.51Z" fill="#D6353C"/>
<path d="M51.83 71.99C45.37 72.62 43.02 74.11 44.56 76.59C44.89 77.13 109.89 77.5 204.56 77.5H364V74.98C364 71.73 360.9 70.5 352.68 70.49C346.92 70.47 345.99 70.13 339 65.41C322.03 53.96 298.66 44.93 272.13 39.57C256.7 36.46 235.65 33.51 228.66 33.49C221.82 33.46 220 32.63 220 29.52C220 27.06 220.43 26.71 224.04 26.22C229.37 25.51 232.85 23.11 234.58 18.95C236.6 14.12 236.34 10.3 233.71 6.39999C229.63 0.339996 228.01 0 203 0C182.55 0 180.24 0.169998 177.7 1.89999C171.88 5.84 169.86 15.11 173.68 20.33C176.18 23.74 181.58 26.5 185.75 26.5C188.66 26.5 189 26.8 189 29.38C189 32.89 187.37 33.47 177.47 33.49C160.88 33.52 129.07 38.96 111 44.86C93.34 50.62 75.05 59.54 66.68 66.45C61.22 70.97 60.83 71.11 51.83 71.99Z" fill="#D6353C"/>
</svg>
